<svg xmlns="http://www.w3.org/2000/svg" viewBox="0 0 500 500"><g id="freepik--background-simple--inject-122"><path d="M479,240c-5.12,43.34-24.9,93.73-64.43,116.88-59.71,35-54.71,88.78-171.26,112.17A239.15,239.15,0,0,1,191.64,474a199.31,199.31,0,0,1-25.36-2.06C92.2,461.09,42.35,409.6,24.06,347.44,0,265.7,48.05,212.18,79.91,179.94S135.09,47.23,249.49,23.33a232.24,232.24,0,0,1,53.11-5c40.7,1,85.1,14.36,115.82,42.26,2.3,2.09,4.54,4.27,6.73,6.51C467.85,110.88,486,181,479,240Z" style="fill:#FF9E00"></path><path d="M479,240c-5.12,43.34-24.9,93.73-64.43,116.88-59.71,35-54.71,88.78-171.26,112.17A239.15,239.15,0,0,1,191.64,474a199.31,199.31,0,0,1-25.36-2.06C92.2,461.09,42.35,409.6,24.06,347.44,0,265.7,48.05,212.18,79.91,179.94S135.09,47.23,249.49,23.33a232.24,232.24,0,0,1,53.11-5c40.7,1,85.1,14.36,115.82,42.26,2.3,2.09,4.54,4.27,6.73,6.51C467.85,110.88,486,181,479,240Z" style="fill:#fff;opacity:0.7000000000000001"></path></g><g id="freepik--Plant--inject-122"><path d="M139.71,298.83l47.42-35.73-53.61,26.8L164.45,237,123.21,284.4l11.21-53.91,5.29,1.23L135,227.77,137.43,216l40.77,4.69-52.92-17.18,54.29-9.62H118.4l47.42-35.74L112.22,185l24.23-41.46L161,149.25l-18.73-15.71.86-1.47-1.1,1.27-2.33-2,52.23,6a.76.76,0,0,0,.33-1.48l-45.69-14.83L192.35,113a.76.76,0,0,0-.13-1.51H139.71l41.52-31.29a.67.67,0,0,0-.71-1.14l-47,23.5,27.3-46.7a.68.68,0,0,0-1.1-.79L123.21,97l13.31-64a.53.53,0,0,0-1-.31L110.84,92.21,108.7,36a.9.9,0,0,0-1.8,0l-4.3,57.6-25-55.64a.74.74,0,0,0-1.39.51l17.5,61.32L49.92,52.05l36.46,56-.11,1.4L34,72.14l43.75,41.47L33.67,93.18a.34.34,0,0,0-.35.58l27.12,18.3,1.84,10.84-24.72-3.22a.38.38,0,0,0-.16.75l25.7,7.27,1.14,6.76-22.53,3.76L34.56,128l32.3,65.29-49.58-32.4,46.14,42.71-51.16-21,46.35,25.07-48-4.15,46.65,11-32.43,7.4,33.8-2.59L35.93,234.47,75.58,223.8,88.48,269c0,3.57.1,8,.17,12.69L49.92,239.43l38.24,58.72L34,259.52l50.71,48.93L27.32,277.09l52.6,35.49-47.58-6.2,46.2,13.07-37,6.18,38.37-1.37L57.24,339.38,89,330.84c-.06,6-.15,13-.23,19.9-.1,8.55-.2,16.79-.26,22.27H74.79a6.2,6.2,0,0,0-5.28,3L54.8,400.52a16.89,16.89,0,0,0-1.82,13l6.54,24.35a8.71,8.71,0,0,0,8.42,6.46h67a8.73,8.73,0,0,0,8.42-6.46l6.54-24.35a16.89,16.89,0,0,0-1.82-13L133.37,376a6.17,6.17,0,0,0-5.28-3H111.37c.06-12.76.15-29.93.23-47.88L161,336.63l-21.3-17.87,59.79,6.88-52.92-17.19,54.29-9.62ZM137.22,216,133,226.12,118.4,213.86Zm-3.49-73.12-22.16,25.48c-.08-12.07-.17-23.1-.22-30.69ZM89.92,238.25c-.81-4.06-.34-12.35.13-18.09l11.68,2.72c-.73,2.22-.94,4.92-1.29,9.44-.09,1.21-.19,2.56-.32,4.07-.37,4.46-1.08,5.4-2.24,7a21.89,21.89,0,0,0-3.14,5.58c-.64,1.61-1.28,5.45-1.88,10.42l-.93-2.09A118.28,118.28,0,0,0,89.92,238.25Zm8.16,12a18.09,18.09,0,0,1,2.68-4.76c1.54-2.07,2.51-3.7,2.94-8.81.13-1.52.23-2.88.32-4.1.34-4.49.54-7,1.22-8.89l1.61.37L102.6,281l-6.82-15.14C96.52,258.18,97.32,252.16,98.08,250.26Zm3.83-70.77,6-28.6c0,6.5.1,13.89.15,21.58Zm2.28-40.13L89.54,174.68l-1.19-31.06ZM87,109l1.12,1.73L87.07,110ZM83.62,144.9l-2.33,31.16-9-28.12ZM70.73,143l-1.83-5.73,11-.4ZM61,112.4l19,12.8-15.53-2Zm5.16,16.15,12.43,3.52-10.73,1.79Zm-24.39,9.69,23-.82,1.46,8.6-9,6,9.54-2.57,5.58,32.81Zm44.67,82.65c-.46,5.87-.83,13.83,0,18.06.55,2.73,1,5.75,1.31,9l-11-24.41ZM92.07,373c.06-5.47.16-13.7.26-22.23.09-7.31.18-14.74.25-20.91L108,325.71c-.09,17.75-.17,34.68-.23,47.3Zm19.85-147.76,19.58,4.56-19.69,47.44c.09-19.2.14-34.95.14-41.4C112,233.15,111.94,229.52,111.92,225.25Z" style="fill:#c7c7c7"></path></g><g id="freepik--Floor--inject-122"><line x1="16.69" y1="444.32" x2="476.61" y2="444.32" style="fill:none;stroke:#263238;stroke-miterlimit:10"></line></g><g id="freepik--Sign--inject-122"><rect x="199.03" y="159.39" width="4.62" height="20.79" style="fill:#263238"></rect><rect x="147.94" y="52.06" width="106.45" height="111.9" style="fill:#263238"></rect><path d="M171.64,98.77a11,11,0,0,1-5.37-1.18A7.5,7.5,0,0,1,163,94a16.42,16.42,0,0,1-1.27-6.09l6.11-1a18.3,18.3,0,0,0,.45,3.59,4.33,4.33,0,0,0,1.12,2.15,2.62,2.62,0,0,0,1.87.71,2,2,0,0,0,1.87-.86,3.88,3.88,0,0,0,.5-2,6.16,6.16,0,0,0-1.06-3.68,17.91,17.91,0,0,0-2.77-3l-3.62-3.14a14.56,14.56,0,0,1-3.16-3.7,9.71,9.71,0,0,1-1.22-5.07,8.54,8.54,0,0,1,2.51-6.61,9.87,9.87,0,0,1,6.91-2.3,9.45,9.45,0,0,1,4.3.86,6.56,6.56,0,0,1,2.6,2.3,9.39,9.39,0,0,1,1.29,3.14,19.85,19.85,0,0,1,.45,3.38l-6.06.9a27.3,27.3,0,0,0-.28-2.79,3.81,3.81,0,0,0-.78-1.89,2.13,2.13,0,0,0-1.74-.69,2.06,2.06,0,0,0-1.85.92,3.7,3.7,0,0,0-.6,2,5.12,5.12,0,0,0,.84,3,15,15,0,0,0,2.3,2.47l3.53,3.1A19.87,19.87,0,0,1,179,84.12a10.81,10.81,0,0,1,1.57,6,8.82,8.82,0,0,1-1.12,4.44,7.9,7.9,0,0,1-3.11,3.09A9.5,9.5,0,0,1,171.64,98.77Z" style="fill:#fff"></path><path d="M182.36,98.3l6.75-34.85H197l6.71,34.85h-6.58l-1.25-7.66h-5.5L189,98.3Zm8.64-12h4.18l-2.11-14.07Z" style="fill:#fff"></path><path d="M207,98.3V63.45h7.1v30h8.18V98.3Z" style="fill:#fff"></path><path d="M225.33,98.3V63.45h15.19v4.91h-8.09v9.25h6.24v4.94h-6.24V93.48h8.18V98.3Z" style="fill:#fff"></path><path d="M162.91,153.43l9.24-37.61h-12V109.4h20.22V115l-9.3,38.48Z" style="fill:#FF9E00"></path><path d="M197.1,154.19a12.18,12.18,0,0,1-6.58-1.63,10.14,10.14,0,0,1-3.91-4.48,15.78,15.78,0,0,1-1.31-6.61V121.74a17.11,17.11,0,0,1,1.25-6.77,9.78,9.78,0,0,1,3.86-4.53,12.42,12.42,0,0,1,6.69-1.64,12.14,12.14,0,0,1,6.6,1.64,9.78,9.78,0,0,1,3.83,4.53,16.93,16.93,0,0,1,1.25,6.77v19.73a15.78,15.78,0,0,1-1.3,6.61,10.14,10.14,0,0,1-3.91,4.48A12,12,0,0,1,197.1,154.19Zm0-7.39a2.41,2.41,0,0,0,2.12-.93,5.41,5.41,0,0,0,.87-2.2,14.62,14.62,0,0,0,.21-2.36V121.9a17,17,0,0,0-.19-2.5,5.08,5.08,0,0,0-.84-2.25,2.42,2.42,0,0,0-2.17-1,2.49,2.49,0,0,0-2.2,1,4.88,4.88,0,0,0-.87,2.25,17,17,0,0,0-.19,2.5v19.41a14.62,14.62,0,0,0,.21,2.36,5,5,0,0,0,.93,2.2A2.5,2.5,0,0,0,197.1,146.8Z" style="fill:#FF9E00"></path><path d="M218,151.84a5.52,5.52,0,0,1-2.94-.67,3.7,3.7,0,0,1-1.55-1.9,8.49,8.49,0,0,1-.47-3V140a8.35,8.35,0,0,1,.47-3,3.61,3.61,0,0,1,1.55-1.88,5.73,5.73,0,0,1,2.94-.64,5.84,5.84,0,0,1,3,.65,3.66,3.66,0,0,1,1.56,1.88A8.26,8.26,0,0,1,223,140v6.29a8.49,8.49,0,0,1-.47,3,3.67,3.67,0,0,1-1.56,1.9A5.63,5.63,0,0,1,218,151.84Zm0-2.48a1.39,1.39,0,0,0,1-.3,1.49,1.49,0,0,0,.41-.81,5.47,5.47,0,0,0,.11-1.1v-8a5.2,5.2,0,0,0-.11-1.08,1.5,1.5,0,0,0-.41-.8,1.39,1.39,0,0,0-1-.3,1.31,1.31,0,0,0-.94.3,1.51,1.51,0,0,0-.42.8,5.22,5.22,0,0,0-.1,1.08v8a6.36,6.36,0,0,0,.09,1.1,1.49,1.49,0,0,0,.41.81A1.35,1.35,0,0,0,218,149.36Z" style="fill:#FF9E00"></path><path d="M225.25,151.61V134.73h7.13v2.34h-3.69v4.56h3.12V144h-3.12v7.58Z" style="fill:#FF9E00"></path><path d="M234,151.61V134.73h7.13v2.34h-3.69v4.56h3.12V144h-3.12v7.58Z" style="fill:#FF9E00"></path><path d="M219.21,123.3a4.71,4.71,0,0,1-3.91-1.48,6.94,6.94,0,0,1-1.17-4.38V116.3a6.7,6.7,0,0,1,1.15-4.34q1.14-1.38,3.93-1.38t4,1.35a6.52,6.52,0,0,1,1.15,4.28v1.32a6.88,6.88,0,0,1-1.16,4.31C222.39,122.82,221.07,123.3,219.21,123.3Zm0-2.76a1.31,1.31,0,0,0,1.06-.39,1.94,1.94,0,0,0,.42-1.12,14,14,0,0,0,.09-1.7v-1a9.39,9.39,0,0,0-.21-2.23c-.14-.5-.6-.75-1.36-.75s-1.19.24-1.34.74a8.29,8.29,0,0,0-.22,2.24v1a11.9,11.9,0,0,0,.1,1.69,2.09,2.09,0,0,0,.43,1.1A1.28,1.28,0,0,0,219.21,120.54Zm2.74,12.7,6.78-22.61h2.54l-6.78,22.61Zm12.05.06a4.71,4.71,0,0,1-3.92-1.48,7,7,0,0,1-1.16-4.36v-1.17a6.81,6.81,0,0,1,1.14-4.33c.75-.93,2.06-1.39,3.94-1.39s3.2.45,4,1.35a6.59,6.59,0,0,1,1.14,4.29v1.28a6.8,6.8,0,0,1-1.17,4.35A4.77,4.77,0,0,1,234,133.3Zm0-2.77a1.27,1.27,0,0,0,1.05-.39,2.27,2.27,0,0,0,.42-1.1,13.21,13.21,0,0,0,.1-1.66v-1a8.24,8.24,0,0,0-.23-2.25c-.15-.49-.59-.74-1.34-.74s-1.19.25-1.34.75a8.89,8.89,0,0,0-.22,2.24v1a15.9,15.9,0,0,0,.08,1.66,1.94,1.94,0,0,0,.44,1.1A1.32,1.32,0,0,0,234,130.53Z" style="fill:#FF9E00"></path></g><g id="freepik--Clothes--inject-122"><path d="M157.43,444.32V190.37a10,10,0,0,1,10-10H331.36a10,10,0,0,1,10,10V443.92" style="fill:none;stroke:#263238;stroke-linejoin:round;stroke-width:4px"></path><path d="M351.64,226.61l-4.83-3.35a45.66,45.66,0,0,1-15.74-19.71l-4-9.4h-6.39l-4,9.4a45.66,45.66,0,0,1-15.74,19.71l-4.83,3.35a10.78,10.78,0,0,0-4.36,8.92H356A10.78,10.78,0,0,0,351.64,226.61Zm-26,5H298c0-3,4.73-5.71,6.6-7.22l3.34-2.71a36.34,36.34,0,0,0,10.9-16l2.79-7.6h4.43l2.79,7.6a36.43,36.43,0,0,0,10.9,16l3.34,2.71c1.87,1.51,6.51,4.25,6.51,7.22Z" style="fill:#fff;stroke:#263238;stroke-linecap:round;stroke-linejoin:round"></path><path d="M323.81,194v-6.9s3.94-3,3.94-7.23-3.28-5.91-6.9-4.6" style="fill:none;stroke:#263238;stroke-linecap:round;stroke-linejoin:round"></path><path d="M305.44,216.19s7.32,8.45,16.53,8.59c9.78.16,21.27-8.4,21.27-8.4a47.9,47.9,0,0,0,8.51,5.88c5.11,2.79,8.48,6.88,11.16,14,3,7.89,9.6,29.36,9.6,29.36l-19,.93,2.6,43.15H292.82l4.28-44H278.63s6.12-29,8.91-34.6S305.44,216.19,305.44,216.19Z" style="fill:#fff;stroke:#263238;stroke-linecap:round;stroke-linejoin:round"></path><line x1="297.1" y1="265.7" x2="298.07" y2="242.64" style="fill:none;stroke:#263238;stroke-linecap:round;stroke-linejoin:round"></line><line x1="353.49" y1="266.51" x2="352" y2="244.11" style="fill:none;stroke:#263238;stroke-linecap:round;stroke-linejoin:round"></line><path d="M341.79,226.61,337,223.26a45.66,45.66,0,0,1-15.74-19.71l-4-9.4H310.8l-4,9.4A45.66,45.66,0,0,1,291,223.26l-4.83,3.35a10.78,10.78,0,0,0-4.36,8.92h64.31A10.78,10.78,0,0,0,341.79,226.61Zm-26,5H288.15c0-3,4.73-5.71,6.6-7.22l3.34-2.71a36.34,36.34,0,0,0,10.9-16l2.79-7.6h4.43l2.79,7.6a36.43,36.43,0,0,0,10.9,16l3.34,2.71c1.87,1.51,6.51,4.25,6.51,7.22Z" style="fill:#fff;stroke:#263238;stroke-linecap:round;stroke-linejoin:round"></path><path d="M314,194v-6.9s3.94-3,3.94-7.23-3.28-5.91-6.9-4.6" style="fill:none;stroke:#263238;stroke-linecap:round;stroke-linejoin:round"></path><path d="M295.59,216.19s7.32,8.45,16.53,8.59c9.78.16,21.27-8.4,21.27-8.4a47.9,47.9,0,0,0,8.51,5.88c5.11,2.79,8.48,6.88,11.16,14,3,7.89,9.6,29.36,9.6,29.36l-19,.93,2.6,43.15H283l4.28-44H268.78s6.12-29,8.91-34.6S295.59,216.19,295.59,216.19Z" style="fill:#6b6b6b;stroke:#263238;stroke-linecap:round;stroke-linejoin:round"></path><line x1="287.25" y1="265.7" x2="288.22" y2="242.64" style="fill:none;stroke:#263238;stroke-linecap:round;stroke-linejoin:round"></line><line x1="343.64" y1="266.51" x2="342.15" y2="244.11" style="fill:none;stroke:#263238;stroke-linecap:round;stroke-linejoin:round"></line><polygon points="287.37 204 304.51 204.82 304.51 278.25 284.15 278.25 287.37 204" style="fill:#fff;stroke:#263238;stroke-linecap:round;stroke-linejoin:round"></polygon><path d="M324.48,225.1l-4.83-3.34A45.75,45.75,0,0,1,303.91,202l-4-9.4h-6.39l-4,9.4a45.75,45.75,0,0,1-15.74,19.72l-4.83,3.34a10.8,10.8,0,0,0-4.36,8.93h64.31A10.8,10.8,0,0,0,324.48,225.1Zm-26,5H270.84c0-3,4.73-5.71,6.6-7.22l3.34-2.7a36.48,36.48,0,0,0,10.9-16l2.79-7.61h4.43l2.79,7.61a36.47,36.47,0,0,0,10.89,16l3.35,2.7c1.87,1.51,6.51,4.26,6.51,7.22Z" style="fill:#fff;stroke:#263238;stroke-linecap:round;stroke-linejoin:round"></path><path d="M296.65,192.49v-6.91s3.94-3,3.94-7.22-3.29-5.92-6.9-4.6" style="fill:none;stroke:#263238;stroke-linecap:round;stroke-linejoin:round"></path><path d="M287.36,204l7.45,65.51,9.1-67.48s15.56,15.92,20.68,18.71,9.77,6.52,11.16,14,8.84,81.89,8.84,81.89l-17.21.93,1.55,42.1H259.45l4.19-44H247.35s10.24-80.49,13-86.08S287.36,204,287.36,204Z" style="fill:#fff;stroke:#263238;stroke-linecap:round;stroke-linejoin:round"></path><path d="M287.36,204l9.15,69.88-2.18,2.9L274,216.46S280.4,206.09,287.36,204Z" style="fill:#fff;stroke:#263238;stroke-linecap:round;stroke-linejoin:round"></path><path d="M303.91,202l-12.49,92.2,28.35-78.51S303.82,200.49,303.91,202Z" style="fill:#fff;stroke:#263238;stroke-linecap:round;stroke-linejoin:round"></path><path d="M260.38,229.59s-13.3,64.65-16.21,79.92-4.36,40-4.36,40l25.44.73,7.27-109.05" style="fill:#fff;stroke:#263238;stroke-linecap:round;stroke-linejoin:round"></path><path d="M334.09,229.59s13.31,64.65,16.22,79.92,4.36,40,4.36,40l-25.45.73L322,241.17" style="fill:#fff;stroke:#263238;stroke-linecap:round;stroke-linejoin:round"></path><line x1="291.42" y1="294.24" x2="291.42" y2="360.4" style="fill:#fff;stroke:#263238;stroke-linecap:round;stroke-linejoin:round"></line><path d="M297.38,226.61l-4.84-3.35a45.57,45.57,0,0,1-15.73-19.71l-4-9.4h-6.4l-4,9.4a45.59,45.59,0,0,1-15.74,19.71l-4.83,3.35a10.81,10.81,0,0,0-4.36,8.92h64.32A10.81,10.81,0,0,0,297.38,226.61Zm-26,5H243.73c0-3,4.73-5.71,6.6-7.22l3.35-2.71a36.41,36.41,0,0,0,10.89-16l2.79-7.6h4.43l2.79,7.6a36.43,36.43,0,0,0,10.9,16l3.34,2.71c1.88,1.51,6.51,4.25,6.51,7.22Z" style="fill:#fff;stroke:#263238;stroke-linecap:round;stroke-linejoin:round"></path><path d="M269.54,194v-6.9s3.94-3,3.94-7.23-3.28-5.91-6.9-4.6" style="fill:none;stroke:#263238;stroke-linecap:round;stroke-linejoin:round"></path><path d="M260.26,205.51l7.44,21.4,9.11-23.36s15.55,15.92,20.67,18.71,9.77,6.51,11.16,14,8.84,81.88,8.84,81.88l-17.21.93,1.56,42.1H232.34l4.19-44H220.25s10.23-80.49,13-86.07S260.26,205.51,260.26,205.51Z" style="fill:#263238;stroke:#263238;stroke-linecap:round;stroke-linejoin:round"></path><polygon points="253.28 210.63 257.47 233.43 266.31 218.54 260.72 202.72 253.28 210.63" style="fill:#fff;stroke:#263238;stroke-linecap:round;stroke-linejoin:round"></polygon><polygon points="276.81 203.55 269.1 219 277.01 234.36 283.52 208.77 276.81 203.55" style="fill:#fff;stroke:#263238;stroke-linecap:round;stroke-linejoin:round"></polygon><line x1="300.27" y1="319.03" x2="296.55" y2="248.31" style="fill:none;stroke:#263238;stroke-linecap:round;stroke-linejoin:round"></line><line x1="236.53" y1="317.17" x2="243.04" y2="248.31" style="fill:none;stroke:#263238;stroke-linecap:round;stroke-linejoin:round"></line><path d="M272.17,226.61l-4.84-3.35a45.57,45.57,0,0,1-15.73-19.71l-4-9.4h-6.4l-4,9.4a45.59,45.59,0,0,1-15.74,19.71l-4.83,3.35a10.81,10.81,0,0,0-4.36,8.92h64.32A10.81,10.81,0,0,0,272.17,226.61Zm-26,5H218.52c0-3,4.73-5.71,6.6-7.22l3.35-2.71a36.41,36.41,0,0,0,10.89-16l2.79-7.6h4.43l2.79,7.6a36.51,36.51,0,0,0,10.9,16l3.34,2.71c1.88,1.51,6.51,4.25,6.51,7.22Z" style="fill:#fff;stroke:#263238;stroke-linecap:round;stroke-linejoin:round"></path><path d="M244.33,194v-6.9s3.94-3,3.94-7.23-3.28-5.91-6.9-4.6" style="fill:none;stroke:#263238;stroke-linecap:round;stroke-linejoin:round"></path><path d="M235.05,205.51l7.44,21.4,9.11-23.36s15.55,15.92,20.67,18.71,9.77,6.51,11.16,14,8.84,81.88,8.84,81.88l-17.21.93,1.56,42.1H207.13l4.19-44H195s10.23-80.49,13-86.07S235.05,205.51,235.05,205.51Z" style="fill:#6b6b6b;stroke:#263238;stroke-linecap:round;stroke-linejoin:round"></path><polygon points="228.07 210.63 232.26 233.43 241.1 218.54 235.51 202.72 228.07 210.63" style="fill:#fff;stroke:#263238;stroke-linecap:round;stroke-linejoin:round"></polygon><polygon points="251.59 203.55 243.89 219 251.8 234.36 258.31 208.77 251.59 203.55" style="fill:#fff;stroke:#263238;stroke-linecap:round;stroke-linejoin:round"></polygon><line x1="275.06" y1="319.03" x2="271.34" y2="248.31" style="fill:none;stroke:#263238;stroke-linecap:round;stroke-linejoin:round"></line><line x1="211.32" y1="317.17" x2="217.83" y2="248.31" style="fill:none;stroke:#263238;stroke-linecap:round;stroke-linejoin:round"></line><path d="M248.92,226.61l-4.83-3.35a45.66,45.66,0,0,1-15.74-19.71l-4-9.4h-6.39l-4,9.4a45.66,45.66,0,0,1-15.74,19.71l-4.83,3.35a10.78,10.78,0,0,0-4.36,8.92h64.31A10.78,10.78,0,0,0,248.92,226.61Zm-26,5H195.28c0-3,4.73-5.71,6.6-7.22l3.34-2.71a36.34,36.34,0,0,0,10.9-16l2.79-7.6h4.43l2.79,7.6a36.43,36.43,0,0,0,10.9,16l3.34,2.71c1.87,1.51,6.51,4.25,6.51,7.22Z" style="fill:#fff;stroke:#263238;stroke-linecap:round;stroke-linejoin:round"></path><path d="M221.09,194v-6.9s3.94-3,3.94-7.23-3.28-5.91-6.9-4.6" style="fill:none;stroke:#263238;stroke-linecap:round;stroke-linejoin:round"></path><path d="M202.72,216.19s7.32,8.45,16.53,8.59c9.78.16,21.27-8.4,21.27-8.4a47.9,47.9,0,0,0,8.51,5.88c5.11,2.79,8.48,6.88,11.16,14,3,7.89,9.6,29.36,9.6,29.36l-19,.93,2.6,43.15H190.1l4.28-44H175.91s6.12-29,8.91-34.6S202.72,216.19,202.72,216.19Z" style="fill:#a1a1a1;stroke:#263238;stroke-linecap:round;stroke-linejoin:round"></path><line x1="194.38" y1="265.7" x2="195.35" y2="242.64" style="fill:none;stroke:#263238;stroke-linecap:round;stroke-linejoin:round"></line><line x1="250.77" y1="266.51" x2="249.28" y2="244.11" style="fill:none;stroke:#263238;stroke-linecap:round;stroke-linejoin:round"></line><path d="M231.53,226.61l-4.84-3.35A45.57,45.57,0,0,1,211,203.55l-4-9.4h-6.4l-4,9.4a45.59,45.59,0,0,1-15.74,19.71l-4.83,3.35a10.81,10.81,0,0,0-4.36,8.92h64.32A10.81,10.81,0,0,0,231.53,226.61Zm-26,5H177.88c0-3,4.73-5.71,6.6-7.22l3.35-2.71a36.41,36.41,0,0,0,10.89-16l2.79-7.6h4.43l2.79,7.6a36.51,36.51,0,0,0,10.9,16l3.35,2.71c1.87,1.51,6.5,4.25,6.5,7.22Z" style="fill:#fff;stroke:#263238;stroke-linecap:round;stroke-linejoin:round"></path><path d="M203.69,194v-6.9s3.94-3,3.94-7.23-3.28-5.91-6.9-4.6" style="fill:none;stroke:#263238;stroke-linecap:round;stroke-linejoin:round"></path><path d="M185.32,216.19s7.33,8.45,16.53,8.59c9.78.16,21.27-8.4,21.27-8.4a47.9,47.9,0,0,0,8.51,5.88c5.12,2.79,8.48,6.88,11.17,14,3,7.89,9.6,29.36,9.6,29.36l-19,.93L236,309.66H172.7l4.28-44H158.51s6.12-29,8.92-34.6S185.32,216.19,185.32,216.19Z" style="fill:#fff;stroke:#263238;stroke-linecap:round;stroke-linejoin:round"></path><line x1="176.98" y1="265.7" x2="177.95" y2="242.64" style="fill:none;stroke:#263238;stroke-linecap:round;stroke-linejoin:round"></line><line x1="233.37" y1="266.51" x2="231.88" y2="244.11" style="fill:none;stroke:#263238;stroke-linecap:round;stroke-linejoin:round"></line><path d="M250.1,444.32V190.37a10,10,0,0,0-10-10H76.17a10,10,0,0,0-10,10V443.92" style="fill:none;stroke:#263238;stroke-linejoin:round;stroke-width:4px"></path><path d="M55.88,226.61l4.84-3.35a45.57,45.57,0,0,0,15.73-19.71l4-9.4h6.4l4,9.4a45.59,45.59,0,0,0,15.74,19.71l4.83,3.35a10.81,10.81,0,0,1,4.36,8.92H51.52A10.81,10.81,0,0,1,55.88,226.61Zm26,5h27.64c0-3-4.73-5.71-6.6-7.22l-3.35-2.71a36.41,36.41,0,0,1-10.89-16l-2.79-7.6H81.47l-2.79,7.6a36.51,36.51,0,0,1-10.9,16l-3.35,2.71c-1.87,1.51-6.5,4.25-6.5,7.22Z" style="fill:#fff;stroke:#263238;stroke-linecap:round;stroke-linejoin:round"></path><path d="M83.72,194v-6.9s-3.94-3-3.94-7.23,3.28-5.91,6.9-4.6" style="fill:none;stroke:#263238;stroke-linecap:round;stroke-linejoin:round"></path><path d="M102.09,216.19s-7.32,8.45-16.53,8.59c-9.78.16-21.27-8.4-21.27-8.4a47.9,47.9,0,0,1-8.51,5.88c-5.12,2.79-8.48,6.88-11.16,14-3,7.89-9.6,29.36-9.6,29.36l19,.93-2.61,43.15h63.28l-4.28-44H128.9s-6.12-29-8.91-34.6S102.09,216.19,102.09,216.19Z" style="fill:#fff;stroke:#263238;stroke-linecap:round;stroke-linejoin:round"></path><line x1="110.43" y1="265.7" x2="109.46" y2="242.64" style="fill:none;stroke:#263238;stroke-linecap:round;stroke-linejoin:round"></line><line x1="54.04" y1="266.51" x2="55.53" y2="244.11" style="fill:none;stroke:#263238;stroke-linecap:round;stroke-linejoin:round"></line><path d="M65.73,226.61l4.84-3.35A45.57,45.57,0,0,0,86.3,203.55l4-9.4h6.4l4,9.4a45.59,45.59,0,0,0,15.74,19.71l4.83,3.35a10.81,10.81,0,0,1,4.36,8.92H61.37A10.81,10.81,0,0,1,65.73,226.61Zm26,5h27.64c0-3-4.73-5.71-6.6-7.22l-3.35-2.71a36.41,36.41,0,0,1-10.89-16l-2.79-7.6H91.32l-2.79,7.6a36.51,36.51,0,0,1-10.9,16l-3.35,2.71c-1.87,1.51-6.5,4.25-6.5,7.22Z" style="fill:#fff;stroke:#263238;stroke-linecap:round;stroke-linejoin:round"></path><path d="M93.57,194v-6.9s-3.94-3-3.94-7.23,3.28-5.91,6.9-4.6" style="fill:none;stroke:#263238;stroke-linecap:round;stroke-linejoin:round"></path><path d="M111.94,216.19s-7.32,8.45-16.53,8.59c-9.78.16-21.27-8.4-21.27-8.4a47.9,47.9,0,0,1-8.51,5.88c-5.12,2.79-8.48,6.88-11.16,14-3,7.89-9.6,29.36-9.6,29.36l19,.93-2.61,43.15h63.28l-4.28-44h18.47s-6.12-29-8.91-34.6S111.94,216.19,111.94,216.19Z" style="fill:#6b6b6b;stroke:#263238;stroke-linecap:round;stroke-linejoin:round"></path><line x1="120.28" y1="265.7" x2="119.31" y2="242.64" style="fill:none;stroke:#263238;stroke-linecap:round;stroke-linejoin:round"></line><line x1="63.89" y1="266.51" x2="65.38" y2="244.11" style="fill:none;stroke:#263238;stroke-linecap:round;stroke-linejoin:round"></line><polygon points="120.16 204 103.02 204.82 103.02 278.25 123.38 278.25 120.16 204" style="fill:#fff;stroke:#263238;stroke-linecap:round;stroke-linejoin:round"></polygon><path d="M83,225.1l4.84-3.34A45.75,45.75,0,0,0,103.62,202l4-9.4H114l4,9.4a45.75,45.75,0,0,0,15.74,19.72l4.83,3.34A10.83,10.83,0,0,1,143,234H78.68A10.83,10.83,0,0,1,83,225.1Zm26,5h27.64c0-3-4.73-5.71-6.6-7.22l-3.35-2.7a36.47,36.47,0,0,1-10.89-16l-2.79-7.61h-4.43l-2.79,7.61a36.48,36.48,0,0,1-10.9,16l-3.34,2.7c-1.88,1.51-6.51,4.26-6.51,7.22Z" style="fill:#fff;stroke:#263238;stroke-linecap:round;stroke-linejoin:round"></path><path d="M110.88,192.49v-6.91s-3.94-3-3.94-7.22,3.28-5.92,6.9-4.6" style="fill:none;stroke:#263238;stroke-linecap:round;stroke-linejoin:round"></path><path d="M120.16,204l-7.44,65.51L103.62,202S88.06,218,82.94,220.75s-9.77,6.52-11.16,14-8.84,81.89-8.84,81.89l17.21.93-1.55,42.1h69.48l-4.19-44h16.28s-10.23-80.49-13-86.08S120.16,204,120.16,204Z" style="fill:#fff;stroke:#263238;stroke-linecap:round;stroke-linejoin:round"></path><path d="M120.16,204,111,273.89l2.18,2.9,20.35-60.33S127.13,206.09,120.16,204Z" style="fill:#fff;stroke:#263238;stroke-linecap:round;stroke-linejoin:round"></path><path d="M103.62,202l12.49,92.2L87.75,215.73S103.71,200.49,103.62,202Z" style="fill:#fff;stroke:#263238;stroke-linecap:round;stroke-linejoin:round"></path><path d="M147.15,229.59s13.3,64.65,16.21,79.92,4.36,40,4.36,40l-25.44.73L135,241.17" style="fill:#fff;stroke:#263238;stroke-linecap:round;stroke-linejoin:round"></path><path d="M73.43,229.59s-13.3,64.65-16.21,79.92-4.36,40-4.36,40l25.44.73,7.27-109.05" style="fill:#fff;stroke:#263238;stroke-linecap:round;stroke-linejoin:round"></path><line x1="116.11" y1="294.24" x2="116.11" y2="360.4" style="fill:#fff;stroke:#263238;stroke-linecap:round;stroke-linejoin:round"></line><path d="M110.15,226.61l4.83-3.35a45.59,45.59,0,0,0,15.74-19.71l4-9.4h6.4l4,9.4a45.64,45.64,0,0,0,15.73,19.71l4.84,3.35a10.81,10.81,0,0,1,4.36,8.92H105.79A10.81,10.81,0,0,1,110.15,226.61Zm26,5h27.64c0-3-4.72-5.71-6.59-7.22l-3.35-2.71a36.51,36.51,0,0,1-10.9-16l-2.79-7.6h-4.42L133,205.7a36.51,36.51,0,0,1-10.9,16l-3.35,2.71c-1.87,1.51-6.51,4.25-6.51,7.22Z" style="fill:#fff;stroke:#263238;stroke-linecap:round;stroke-linejoin:round"></path><path d="M138,194v-6.9s-4-3-4-7.23,3.29-5.91,6.9-4.6" style="fill:none;stroke:#263238;stroke-linecap:round;stroke-linejoin:round"></path><path d="M147.27,205.51l-7.44,21.4-9.11-23.36s-15.55,15.92-20.67,18.71-9.77,6.51-11.17,14S90,318.1,90,318.1l17.22.93-1.56,42.1h69.48l-4.18-44h16.28s-10.23-80.49-13-86.07S147.27,205.51,147.27,205.51Z" style="fill:#263238;stroke:#263238;stroke-linecap:round;stroke-linejoin:round"></path><polygon points="154.25 210.63 150.06 233.43 141.22 218.54 146.8 202.72 154.25 210.63" style="fill:#fff;stroke:#263238;stroke-linecap:round;stroke-linejoin:round"></polygon><polygon points="130.72 203.55 138.43 219 130.52 234.36 124.01 208.77 130.72 203.55" style="fill:#fff;stroke:#263238;stroke-linecap:round;stroke-linejoin:round"></polygon><line x1="107.26" y1="319.03" x2="110.98" y2="248.31" style="fill:none;stroke:#263238;stroke-linecap:round;stroke-linejoin:round"></line><line x1="171" y1="317.17" x2="164.48" y2="248.31" style="fill:none;stroke:#263238;stroke-linecap:round;stroke-linejoin:round"></line><path d="M135.36,226.61l4.83-3.35a45.59,45.59,0,0,0,15.74-19.71l4-9.4h6.4l4,9.4a45.59,45.59,0,0,0,15.74,19.71l4.83,3.35a10.81,10.81,0,0,1,4.36,8.92H131A10.81,10.81,0,0,1,135.36,226.61Zm26,5H189c0-3-4.72-5.71-6.59-7.22l-3.35-2.71a36.51,36.51,0,0,1-10.9-16l-2.79-7.6H161l-2.79,7.6a36.51,36.51,0,0,1-10.9,16l-3.35,2.71c-1.87,1.51-6.51,4.25-6.51,7.22Z" style="fill:#fff;stroke:#263238;stroke-linecap:round;stroke-linejoin:round"></path><path d="M163.2,194v-6.9s-3.95-3-3.95-7.23,3.29-5.91,6.9-4.6" style="fill:none;stroke:#263238;stroke-linecap:round;stroke-linejoin:round"></path><path d="M172.48,205.51,165,226.91l-9.11-23.36s-15.55,15.92-20.67,18.71-9.77,6.51-11.17,14-8.84,81.88-8.84,81.88l17.22.93-1.56,42.1h69.48l-4.18-44h16.28s-10.23-80.49-13-86.07S172.48,205.51,172.48,205.51Z" style="fill:#6b6b6b;stroke:#263238;stroke-linecap:round;stroke-linejoin:round"></path><polygon points="179.46 210.63 175.27 233.43 166.43 218.54 172.01 202.72 179.46 210.63" style="fill:#fff;stroke:#263238;stroke-linecap:round;stroke-linejoin:round"></polygon><polygon points="155.93 203.55 163.64 219 155.73 234.36 149.22 208.77 155.93 203.55" style="fill:#fff;stroke:#263238;stroke-linecap:round;stroke-linejoin:round"></polygon><line x1="132.47" y1="319.03" x2="136.19" y2="248.31" style="fill:none;stroke:#263238;stroke-linecap:round;stroke-linejoin:round"></line><line x1="196.21" y1="317.17" x2="189.69" y2="248.31" style="fill:none;stroke:#263238;stroke-linecap:round;stroke-linejoin:round"></line><path d="M158.6,226.61l4.84-3.35a45.57,45.57,0,0,0,15.73-19.71l4-9.4h6.4l4,9.4a45.59,45.59,0,0,0,15.74,19.71l4.83,3.35a10.81,10.81,0,0,1,4.36,8.92H154.24A10.81,10.81,0,0,1,158.6,226.61Zm26,5h27.64c0-3-4.73-5.71-6.6-7.22l-3.35-2.71a36.41,36.41,0,0,1-10.89-16l-2.79-7.6h-4.43l-2.79,7.6a36.51,36.51,0,0,1-10.9,16l-3.35,2.71c-1.87,1.51-6.5,4.25-6.5,7.22Z" style="fill:#fff;stroke:#263238;stroke-linecap:round;stroke-linejoin:round"></path><path d="M186.44,194v-6.9s-3.94-3-3.94-7.23,3.28-5.91,6.9-4.6" style="fill:none;stroke:#263238;stroke-linecap:round;stroke-linejoin:round"></path><path d="M204.81,216.19s-7.32,8.45-16.53,8.59c-9.78.16-21.27-8.4-21.27-8.4a47.9,47.9,0,0,1-8.51,5.88c-5.12,2.79-8.48,6.88-11.16,14-3,7.89-9.6,29.36-9.6,29.36l19,.93-2.61,43.15h63.28l-4.28-44h18.47s-6.12-29-8.91-34.6S204.81,216.19,204.81,216.19Z" style="fill:#a1a1a1;stroke:#263238;stroke-linecap:round;stroke-linejoin:round"></path><line x1="213.15" y1="265.7" x2="212.18" y2="242.64" style="fill:none;stroke:#263238;stroke-linecap:round;stroke-linejoin:round"></line><line x1="156.76" y1="266.51" x2="158.25" y2="244.11" style="fill:none;stroke:#263238;stroke-linecap:round;stroke-linejoin:round"></line><path d="M176,226.61l4.83-3.35a45.59,45.59,0,0,0,15.74-19.71l4-9.4H207l4,9.4a45.57,45.57,0,0,0,15.73,19.71l4.84,3.35a10.81,10.81,0,0,1,4.36,8.92H171.64A10.81,10.81,0,0,1,176,226.61Zm26,5h27.64c0-3-4.72-5.71-6.59-7.22l-3.35-2.71a36.51,36.51,0,0,1-10.9-16L206,198.1h-4.43l-2.79,7.6a36.41,36.41,0,0,1-10.89,16l-3.35,2.71c-1.87,1.51-6.51,4.25-6.51,7.22Z" style="fill:#fff;stroke:#263238;stroke-linecap:round;stroke-linejoin:round"></path><path d="M203.84,194v-6.9s-4-3-4-7.23,3.29-5.91,6.9-4.6" style="fill:none;stroke:#263238;stroke-linecap:round;stroke-linejoin:round"></path><path d="M222.21,216.19s-7.33,8.45-16.54,8.59c-9.77.16-21.26-8.4-21.26-8.4a47.9,47.9,0,0,1-8.51,5.88c-5.12,2.79-8.48,6.88-11.17,14-3,7.89-9.6,29.36-9.6,29.36l19,.93-2.61,43.15h63.28l-4.29-44H249s-6.12-29-8.91-34.6S222.21,216.19,222.21,216.19Z" style="fill:#fff;stroke:#263238;stroke-linecap:round;stroke-linejoin:round"></path><line x1="230.54" y1="265.7" x2="229.58" y2="242.64" style="fill:none;stroke:#263238;stroke-linecap:round;stroke-linejoin:round"></line><line x1="174.16" y1="266.51" x2="175.65" y2="244.11" style="fill:none;stroke:#263238;stroke-linecap:round;stroke-linejoin:round"></line><line x1="330.57" y1="192.18" x2="330.57" y2="210.6" style="fill:none;stroke:#263238;stroke-linecap:round;stroke-linejoin:round"></line><polygon points="336.31 237.21 324.43 237.21 324.43 216.48 330.68 210.94 336.31 216.48 336.31 237.21" style="fill:#263238;stroke:#263238;stroke-linecap:round;stroke-linejoin:round"></polygon><path d="M334.2,231.3a2.22,2.22,0,0,1-.25,1.11,1.49,1.49,0,0,1-.73.67,3.38,3.38,0,0,1-1.26.26l-.21-1.26a3.65,3.65,0,0,0,.74-.09.92.92,0,0,0,.44-.23.54.54,0,0,0,.15-.39.41.41,0,0,0-.18-.39.89.89,0,0,0-.41-.1,1.26,1.26,0,0,0-.76.22,4.53,4.53,0,0,0-.62.57l-.64.75a3,3,0,0,1-.77.65,2,2,0,0,1-1.05.26,1.76,1.76,0,0,1-1.36-.52,2,2,0,0,1-.48-1.43,1.93,1.93,0,0,1,.18-.89,1.4,1.4,0,0,1,.48-.54,2,2,0,0,1,.64-.26,5.9,5.9,0,0,1,.7-.1l.19,1.26-.58.05a.82.82,0,0,0-.39.16.46.46,0,0,0-.14.36.43.43,0,0,0,.19.39.79.79,0,0,0,.42.12,1.11,1.11,0,0,0,.63-.17,3.66,3.66,0,0,0,.51-.48l.64-.73a4.08,4.08,0,0,1,.89-.77,2.23,2.23,0,0,1,1.24-.33,1.87,1.87,0,0,1,.92.23,1.74,1.74,0,0,1,.64.65A2,2,0,0,1,334.2,231.3Z" style="fill:#fff"></path><path d="M334.1,229.09l-7.2-1.4v-1.63l7.2-1.38V226l-1.58.26v1.13l1.58.28Zm-2.48-1.79v-.86l-2.91.43Z" style="fill:#fff"></path><path d="M334.1,224h-7.2v-1.46h6.21v-1.69h1Z" style="fill:#fff"></path><path d="M334.1,220.21h-7.2v-3.14h1v1.67h1.92v-1.29h1v1.29h2.26v-1.69h1Z" style="fill:#fff"></path><line x1="205.31" y1="224.69" x2="205.31" y2="243.12" style="fill:none;stroke:#263238;stroke-linecap:round;stroke-linejoin:round"></line><polygon points="211.05 269.72 199.17 269.72 199.17 249 205.42 243.45 211.05 249 211.05 269.72" style="fill:#263238;stroke:#263238;stroke-linecap:round;stroke-linejoin:round"></polygon><path d="M208.94,263.81a2.28,2.28,0,0,1-.24,1.11,1.56,1.56,0,0,1-.74.67,3.57,3.57,0,0,1-1.26.27l-.21-1.27a3.65,3.65,0,0,0,.74-.09.87.87,0,0,0,.44-.23.53.53,0,0,0,.15-.39.39.39,0,0,0-.18-.38.78.78,0,0,0-.41-.11,1.34,1.34,0,0,0-.76.22,4,4,0,0,0-.61.57l-.65.75a2.78,2.78,0,0,1-.77.65,2,2,0,0,1-1.05.26,1.78,1.78,0,0,1-1.36-.52,2,2,0,0,1-.48-1.43,1.93,1.93,0,0,1,.18-.89,1.4,1.4,0,0,1,.48-.54,2.06,2.06,0,0,1,.65-.26,5.46,5.46,0,0,1,.69-.1l.19,1.26a4.51,4.51,0,0,0-.58.06.77.77,0,0,0-.39.16.46.46,0,0,0-.14.36.42.42,0,0,0,.19.38.79.79,0,0,0,.42.12,1.09,1.09,0,0,0,.63-.17,3.66,3.66,0,0,0,.51-.48l.64-.73a4.08,4.08,0,0,1,.89-.77,2.23,2.23,0,0,1,1.24-.33,1.87,1.87,0,0,1,.92.23,1.67,1.67,0,0,1,.64.65A2,2,0,0,1,208.94,263.81Z" style="fill:#fff"></path><path d="M208.84,261.6l-7.2-1.4v-1.62l7.2-1.39v1.36l-1.58.26v1.13l1.58.28Zm-2.48-1.79V259l-2.9.43Z" style="fill:#fff"></path><path d="M208.84,256.51h-7.2v-1.46h6.21v-1.69h1Z" style="fill:#fff"></path><path d="M208.84,252.72h-7.2v-3.14h1v1.67h1.91V250h1v1.29h2.26v-1.69h1Z" style="fill:#fff"></path><line x1="90.39" y1="223.2" x2="90.39" y2="241.63" style="fill:none;stroke:#263238;stroke-linecap:round;stroke-linejoin:round"></line><polygon points="96.13 268.23 84.25 268.23 84.25 247.51 90.5 241.97 96.13 247.51 96.13 268.23" style="fill:#263238;stroke:#263238;stroke-linecap:round;stroke-linejoin:round"></polygon><path d="M94,262.32a2.17,2.17,0,0,1-.25,1.11,1.56,1.56,0,0,1-.73.68,3.59,3.59,0,0,1-1.26.26l-.21-1.26a4.42,4.42,0,0,0,.74-.1.92.92,0,0,0,.44-.23.53.53,0,0,0,.15-.39.4.4,0,0,0-.18-.38.78.78,0,0,0-.41-.1,1.33,1.33,0,0,0-.76.21,4.08,4.08,0,0,0-.62.58l-.64.74a3,3,0,0,1-.77.66,2,2,0,0,1-1,.25,1.73,1.73,0,0,1-1.36-.52,2,2,0,0,1-.48-1.43,2,2,0,0,1,.18-.89,1.3,1.3,0,0,1,.48-.53,1.82,1.82,0,0,1,.64-.27,4.33,4.33,0,0,1,.7-.09l.19,1.25a4.51,4.51,0,0,0-.58.06.73.73,0,0,0-.39.16.46.46,0,0,0-.14.36.41.41,0,0,0,.19.38.79.79,0,0,0,.42.12,1,1,0,0,0,.63-.17,3,3,0,0,0,.51-.47l.64-.73a3.87,3.87,0,0,1,.89-.78,2.23,2.23,0,0,1,1.24-.33,1.78,1.78,0,0,1,.92.24,1.64,1.64,0,0,1,.64.64A2,2,0,0,1,94,262.32Z" style="fill:#fff"></path><path d="M93.92,260.11l-7.2-1.4v-1.62l7.2-1.39v1.36l-1.58.26v1.14l1.58.27Zm-2.48-1.79v-.86l-2.91.44Z" style="fill:#fff"></path><path d="M93.92,255h-7.2v-1.47h6.21v-1.69h1Z" style="fill:#fff"></path><path d="M93.92,251.23h-7.2v-3.14h1v1.67h1.92v-1.29h1v1.29h2.26v-1.69h1Z" style="fill:#fff"></path><line x1="265.39" y1="217.76" x2="265.39" y2="236.19" style="fill:none;stroke:#263238;stroke-linecap:round;stroke-linejoin:round"></line><polygon points="271.13 262.79 259.25 262.79 259.25 242.07 265.5 236.53 271.13 242.07 271.13 262.79" style="fill:#263238;stroke:#263238;stroke-linecap:round;stroke-linejoin:round"></polygon><path d="M269,256.89a2.34,2.34,0,0,1-.24,1.11,1.61,1.61,0,0,1-.74.67,3.38,3.38,0,0,1-1.26.26l-.21-1.26a3.65,3.65,0,0,0,.74-.09.81.81,0,0,0,.44-.24.52.52,0,0,0,.15-.38.41.41,0,0,0-.18-.39.78.78,0,0,0-.41-.1,1.26,1.26,0,0,0-.76.22,3.18,3.18,0,0,0-.61.57l-.65.75a3.17,3.17,0,0,1-.77.65,2,2,0,0,1-1,.25,1.74,1.74,0,0,1-1.36-.52,2,2,0,0,1-.48-1.42,1.93,1.93,0,0,1,.18-.89,1.4,1.4,0,0,1,.48-.54,1.87,1.87,0,0,1,.65-.27,4.08,4.08,0,0,1,.69-.09l.19,1.25c-.22,0-.41,0-.58.06a.87.87,0,0,0-.39.16.46.46,0,0,0-.14.36.41.41,0,0,0,.19.38.72.72,0,0,0,.42.13,1,1,0,0,0,.63-.18,3,3,0,0,0,.51-.47l.64-.73a4.41,4.41,0,0,1,.89-.78,2.31,2.31,0,0,1,1.24-.32,1.87,1.87,0,0,1,.92.23,1.71,1.71,0,0,1,.64.64A2,2,0,0,1,269,256.89Z" style="fill:#fff"></path><path d="M268.92,254.67l-7.2-1.39v-1.63l7.2-1.39v1.36l-1.58.26V253l1.58.28Zm-2.48-1.78V252l-2.9.44Z" style="fill:#fff"></path><path d="M268.92,249.59h-7.2v-1.47h6.21v-1.69h1Z" style="fill:#fff"></path><path d="M268.92,245.79h-7.2v-3.13h1v1.67h1.91V243h1v1.29h2.26v-1.69h1Z" style="fill:#fff"></path><line x1="150.84" y1="214.39" x2="150.84" y2="232.82" style="fill:none;stroke:#263238;stroke-linecap:round;stroke-linejoin:round"></line><polygon points="156.57 259.42 144.69 259.42 144.69 238.7 150.94 233.16 156.57 238.7 156.57 259.42" style="fill:#263238;stroke:#263238;stroke-linecap:round;stroke-linejoin:round"></polygon><path d="M154.46,253.52a2.34,2.34,0,0,1-.24,1.11,1.52,1.52,0,0,1-.74.67,3.38,3.38,0,0,1-1.26.26L152,254.3a3.47,3.47,0,0,0,.74-.09,1,1,0,0,0,.45-.23.55.55,0,0,0,.14-.39.41.41,0,0,0-.17-.39.8.8,0,0,0-.41-.1,1.24,1.24,0,0,0-.76.22,3.21,3.21,0,0,0-.62.57l-.65.75a3.12,3.12,0,0,1-.76.65,2,2,0,0,1-1.05.25,1.76,1.76,0,0,1-1.37-.52,2,2,0,0,1-.47-1.42,1.93,1.93,0,0,1,.18-.89,1.3,1.3,0,0,1,.47-.54,2,2,0,0,1,.65-.27,4.19,4.19,0,0,1,.7-.09l.18,1.25-.57.06a.78.78,0,0,0-.39.16.49.49,0,0,0,0,.74.73.73,0,0,0,.43.13,1.08,1.08,0,0,0,.62-.17,2.81,2.81,0,0,0,.51-.48l.64-.73a4.47,4.47,0,0,1,.9-.78,2.28,2.28,0,0,1,1.24-.32,1.84,1.84,0,0,1,.91.23,1.58,1.58,0,0,1,.64.64A1.92,1.92,0,0,1,154.46,253.52Z" style="fill:#fff"></path><path d="M154.37,251.3l-7.2-1.39v-1.63l7.2-1.38v1.36l-1.59.25v1.14l1.59.28Zm-2.48-1.78v-.86l-2.91.43Z" style="fill:#fff"></path><path d="M154.37,246.22h-7.2v-1.47h6.2v-1.69h1Z" style="fill:#fff"></path><path d="M154.37,242.42h-7.2v-3.13h1V241h1.91v-1.29h1V241h2.26v-1.69h1Z" style="fill:#fff"></path></g><g id="freepik--Character--inject-122"><path d="M414.67,160.08s-7.72,2.13-14.62,12-25.31,32.8-25.31,32.8l-19.31-2.31,11.12,14.63s11.36,3.78,19.26-.35,20.24-19.19,20.24-19.19L421.31,160Z" style="fill:#fff;stroke:#263238;stroke-linecap:round;stroke-linejoin:round"></path><path d="M386.56,318.36s-1.14,14.85-.58,19.54,5.92,53.55,7.77,65.05-1.37,27.56-1.37,27.56c.36.74-9.32,8-14.39,11.09-3,1.83-8.41,3.69-7.66,5.79s20.24.34,23.29-.42a89.78,89.78,0,0,1,12.44-1.64c1.88,0,3.27-1.24,2.95-5.94s-2.71-6.78-1.65-13.15.73-11.31,2.82-25.71,4-26.66,3.32-37.48-3.33-27.94-3.33-27.94l3.1-10.65Z" style="fill:#fff;stroke:#263238;stroke-linecap:round;stroke-linejoin:round"></path><path d="M383.19,442.92a6.76,6.76,0,0,1-4.39-1.82l-.81.5c-3,1.83-8.41,3.69-7.66,5.79s20.24.34,23.29-.42a89.78,89.78,0,0,1,12.44-1.64c1.88,0,3.27-1.24,2.95-5.94a19.2,19.2,0,0,0-.87-4.31,32.33,32.33,0,0,1-7.61,3.76C393.74,441.08,386.48,442.86,383.19,442.92Z" style="fill:#263238;stroke:#263238;stroke-linecap:round;stroke-linejoin:round"></path><path d="M430.23,325.56s-1.23,9.91-.21,14.36,8,76.58,9,81.5,0,13.42,0,13.42-10.19,8.66-14.63,10.62-10.52,3.72-9.32,5.35,13,2.82,14.88,2.79,18.78-2.93,20.17-3.9a5.79,5.79,0,0,0,1.78-5.45c-.5-1.63,0-14.12.58-20.25s7.15-33.31,7.42-44.61-2.35-25.38-3.87-31.47,1.9-25,1.9-25Z" style="fill:#fff;stroke:#263238;stroke-linecap:round;stroke-linejoin:round"></path><path d="M415.1,450.81c1.21,1.63,13,2.82,14.88,2.79s18.78-2.93,20.17-3.9a5.79,5.79,0,0,0,1.78-5.45,10.25,10.25,0,0,1-.18-2c-7.44,2.6-19.63,6.16-20.68,6.36-1.41.26-6.65-3.18-6.65-3.18C420,447.43,413.9,449.18,415.1,450.81Z" style="fill:#263238;stroke:#263238;stroke-linecap:round;stroke-linejoin:round"></path><path d="M396.77,246.15s-6.78,28.13-9.24,48.18-3,27.6-3,27.6a159.33,159.33,0,0,0,39.2,7.52c22.39,1.47,38.76-4,38.76-4s3.57-49.72.92-65.91a87.69,87.69,0,0,0-9-27.14l-51.66,2.78Z" style="fill:#263238;stroke:#263238;stroke-linecap:round;stroke-linejoin:round"></path><path d="M402.69,260.87s14.74,8.21,23.45,8.28" style="fill:none;stroke:#8a8a8a;stroke-linecap:round;stroke-linejoin:round"></path><path d="M435.85,272.51s-16.15,4.76-25.33,4.69" style="fill:none;stroke:#8a8a8a;stroke-linecap:round;stroke-linejoin:round"></path><path d="M414.25,161.82s-17.76,28.63-17.07,37.41,8.19,24.82,8.19,24.82-3.5,10.43-2.61,11.12,51.14-.94,51.14-.94,9-44.11,10.1-53.45,2.92-13.59-2.43-17.71-22.1-6.63-22.1-6.63l-24.91,2.19Z" style="fill:#FF9E00;stroke:#263238;stroke-linecap:round;stroke-linejoin:round"></path><path d="M406.92,221.12s4.76-6.29,5.3-13.39" style="fill:none;stroke:#263238;stroke-linecap:round;stroke-linejoin:round"></path><path d="M432.2,210.69s3.23,7.25,9.95,11.33" style="fill:none;stroke:#263238;stroke-linecap:round;stroke-linejoin:round"></path><path d="M397.08,146.47s-4.27,10.16-2.49,14.44,7,5.24,11.48,4.77,5.48-1,5.48-1-2.15-3-2.2-5.46,1-8.66-1.78-11.61S398.49,145,397.08,146.47Z" style="fill:#263238;stroke:#263238;stroke-linecap:round;stroke-linejoin:round"></path><path d="M414.56,158.63a15.6,15.6,0,0,1,1.29,5.9c.07,3.36,2.67,5.29,6.94,1.06s4.55-15.19,3.5-16.41S414.56,158.63,414.56,158.63Z" style="fill:#fff;stroke:#263238;stroke-linecap:round;stroke-linejoin:round"></path><path d="M387.58,128.42a41.51,41.51,0,0,1,2.15,7.59c.24,2.6,2.67,3.76,3.91,5.74s1.93,6.59,6.21,10.32,9.24,11.27,12.45,11.41,10.46-9.42,14-14.3,3.77-13.11-3.78-20.19S403.78,114.48,399,115a13.38,13.38,0,0,0-10.51,6.81A10.13,10.13,0,0,0,387.58,128.42Z" style="fill:#fff;stroke:#263238;stroke-linecap:round;stroke-linejoin:round"></path><path d="M393.74,139.77s-.49-1.16,1.39-.85,3.43,2.05,3.62,6.14-.36,5.74,1.52,6.17a3.84,3.84,0,0,0,3.37-1.23" style="fill:none;stroke:#263238;stroke-linecap:round;stroke-linejoin:round"></path><path d="M407,153.33a7.27,7.27,0,0,0,6.55-6.32" style="fill:none;stroke:#263238;stroke-linecap:round;stroke-linejoin:round"></path><path d="M407.3,138.4c.49.81.44,1.74-.12,2.08s-1.4,0-1.89-.86-.44-1.74.11-2.08S406.81,137.59,407.3,138.4Z" style="fill:#263238"></path><path d="M398,143.08c.49.81.44,1.74-.12,2.07s-1.4,0-1.89-.85-.44-1.74.11-2.08S397.49,142.27,398,143.08Z" style="fill:#263238"></path><path d="M399.73,136.38s1.28-5.56,7.66-2.71" style="fill:none;stroke:#263238;stroke-linecap:round;stroke-linejoin:round"></path><path d="M393,106.45s-14.23,12.1-12.93,17.49,7.51,4.48,7.51,4.48.92-4.43,2.5-5.86,6.33-4.94,6.33-4.94,1.15,7.61,10,11.26,17.74,4.49,19.12,14.1-4.42,21.55-4.42,21.55,9.25,1.23,20.79-4,16.57-15.95,12.34-27.51-10.13-11.8-13.23-16.76-10.07-17.53-17.34-20S403.77,92,393,106.45Z" style="fill:#263238;stroke:#263238;stroke-linecap:round;stroke-linejoin:round"></path><path d="M457.92,164.16s-6.42-.1-10.68,9.5a46.5,46.5,0,0,0-2.84,26.18,8.24,8.24,0,0,0,6.54,6.3l2.55,18.56s-27.92,11.13-32.55,11.88a17.62,17.62,0,0,1-7.76-.3s-6.71-3.42-8.92-3.6-5.77-.34-7.1-.31l-2.43,0s5.13,2.12,6.49,3.87.55,6-1.19,7.33-10.85.42-10.85.42a32,32,0,0,0,4.06,3.91c1.57,1.08,5.79,1.44,8.22,1.62s3.36,1.71,5.76.12,6.56-4.55,6.56-4.55,16.13-2.07,27.42-2.27,26.68-6.47,28.41-8.49-1.24-31.65-1.17-40.06-.88-23.68-4-26.95A9.6,9.6,0,0,0,457.92,164.16Z" style="fill:#fff;stroke:#263238;stroke-linecap:round;stroke-linejoin:round"></path><line x1="450.94" y1="206.14" x2="448.18" y2="188.25" style="fill:none;stroke:#263238;stroke-linecap:round;stroke-linejoin:round"></line><line x1="453.49" y1="224.7" x2="461.19" y2="221.9" style="fill:none;stroke:#263238;stroke-linecap:round;stroke-linejoin:round"></line><path d="M307.57,174.83s-1.23.7-.84,3.16,2.92,3.33,2.41,8-1.91,13.69-1.77,14.93.28,2.8,1.62,2.78,1.3-2.72,3.26-6.58,3.67-8.28,3.65-9.51-.28-3-.28-3,9.05,3.2,14.44,2.88,14.71-.83,15.95-.74,3.37-.51,1.42-2.61-7.7-2.56-14-2.9-17.53-6-21.26-6.8S307.57,174.83,307.57,174.83Z" style="fill:#8f8f8f;stroke:#263238;stroke-linecap:round;stroke-linejoin:round"></path><path d="M307.57,174.83s-7.43-6.61-8.69-8.05.12-5.4,4.32-3.23l2.28,1.76" style="fill:none;stroke:#263238;stroke-linecap:round;stroke-linejoin:round"></path><path d="M332.13,180.93s1,10.07-5,15-18.9-2-18.9-2-1.67,8-1.42,12.59,5.3,27.53,5.3,27.53l-5,60s3,2.26,11.28,2.11,11.06-1,11.06-1-1.4-22.64-3.18-38.65-3.05-21.94-3.05-21.94L322,225.28s4.47,27.7,23.58,32.48,28.1-1,33.34-3.75,15.24-8.22,15.24-8.22,4.49,1.74,7.09-1.12,1.64-9.62.3-10.43-6.85-1.83-6.85-1.83-17.17-9.64-25.77-18.58S352.74,186,349.4,184.25A27.22,27.22,0,0,0,332.13,180.93Z" style="fill:#FF9E00;stroke:#263238;stroke-linecap:round;stroke-linejoin:round"></path><path d="M346.17,196.68c4,6.64,12.5,20.72,18.56,30.3C372.91,239.9,389.18,244,389.18,244" style="fill:none;stroke:#263238;stroke-linecap:round;stroke-linejoin:round"></path><path d="M343.93,193s.45.76,1.24,2.06" style="fill:none;stroke:#263238;stroke-linecap:round;stroke-linejoin:round"></path><path d="M373.12,251.51c10.5-.54,14.12-5.59,14.12-5.59" style="fill:none;stroke:#263238;stroke-linecap:round;stroke-linejoin:round"></path><path d="M329.71,228.74c8.31,8.63,20.65,19.48,32,21.78a50.66,50.66,0,0,0,7.95,1" style="fill:none;stroke:#263238;stroke-linecap:round;stroke-linejoin:round"></path><path d="M319.9,217.54s3,3.93,7.82,9.1" style="fill:none;stroke:#263238;stroke-linecap:round;stroke-linejoin:round"></path><path d="M333.63,241.5c4.5,5.19,9.83,10,15,11.74" style="fill:none;stroke:#263238;stroke-linecap:round;stroke-linejoin:round"></path><path d="M322,225.28a120.31,120.31,0,0,0,10.19,14.56" style="fill:none;stroke:#263238;stroke-linecap:round;stroke-linejoin:round"></path><polyline points="313.43 222.64 315.93 235.31 313.93 234.52" style="fill:none;stroke:#263238;stroke-linecap:round;stroke-linejoin:round"></polyline><line x1="311.73" y1="214.05" x2="312.87" y2="219.81" style="fill:none;stroke:#263238;stroke-linecap:round;stroke-linejoin:round"></line><line x1="318.62" y1="257.76" x2="318.75" y2="262.88" style="fill:none;stroke:#263238;stroke-linecap:round;stroke-linejoin:round"></line><line x1="318.1" y1="236.76" x2="318.55" y2="254.78" style="fill:none;stroke:#263238;stroke-linecap:round;stroke-linejoin:round"></line><line x1="320.92" y1="236.88" x2="322.85" y2="252.39" style="fill:none;stroke:#263238;stroke-linecap:round;stroke-linejoin:round"></line><path d="M344.13,203.54s9.86,15,20.6,23.44" style="fill:none;stroke:#263238;stroke-linecap:round;stroke-linejoin:round"></path><path d="M309.14,186a2.21,2.21,0,0,0-3.19.54,3.71,3.71,0,0,0-.83,2.7c.5,1.63,6.92,4.81,8.32,4.32s.91-1.9-.54-4A19.19,19.19,0,0,0,309.14,186Z" style="fill:#fff;stroke:#263238;stroke-linecap:round;stroke-linejoin:round"></path><path d="M305.83,190.26a7,7,0,0,0-.27,3.72c.48,1.68,4.88,2.72,6.45,2.24s-.05-2.58-.05-2.58S306.5,190.25,305.83,190.26Z" style="fill:#fff;stroke:#263238;stroke-linecap:round;stroke-linejoin:round"></path><path d="M306,195.21s.05,3,1.18,3.35,6.64-.12,6.62-1.13-1.82-1.21-1.82-1.21S308.41,196.51,306,195.21Z" style="fill:#fff;stroke:#263238;stroke-linecap:round;stroke-linejoin:round"></path><path d="M307.21,198.56a5.8,5.8,0,0,0,2.17,1.42c1.13.32,3.79-1.53,3.79-1.53Z" style="fill:none;stroke:#263238;stroke-linecap:round;stroke-linejoin:round"></path></g></svg>
